{"title":"The Elephant In The Living Room 2010 DVDRip XviD-SPRiNTER","uid":7036769,"size":738429698,"categoryP":"video","categoryS":"movies","magnet":"?xt=urn:btih:6dff7043ae359923d82373074e6e2a67d8c79dec&amp;dn=The+Elephant+In+The+Living+Room+2010+DVDRip+XviD-SPRiNTER&amp;tr=udp%3A%2F%2Ftracker.openbittorrent.com%3A80&amp;tr=udp%3A%2F%2Fopen.demonii.com%3A1337&amp;tr=udp%3A%2F%2Ftracker.coppersurfer.tk%3A6969&amp;tr=udp%3A%2F%2Fexodus.desync.com%3A6969","seeders":4,"leechers":0,"uploader":"HeroMaster","files":-1,"time":1329411652,"description":"ARTiCHOKE\n\nSPRiNTER proudly presents...\n\nThe.Elephant.In.The.Living.Room.2010.DVDRip.XviD-SPRiNTER\n\nDate : 15.2.2012\nURL  : http://www.imdb.com/title/tt1111313\nSubs : No\n\nRelease notes\n\nEnjoy\n\nNews\n\nWe are currently looking for\n- Looking for talented xvid-encoders with time &amp; addiction\n- Suppliers who can provide pre-retail or retail dvds with decent upload\n- 50Mbit dump providers with 1TB free space\n\nsprinterhush.com\n\nGreetings\n\nNTX FiCO HNR CiNEFiLE AEN HUMANiSM TASTE 0MNiDVD\n\nDetails\n\nFormat                                  : AVI\nFormat/Info                              : Audio Video Interleave\nFile size                                : 703 MiB\nDuration                                : 1h 36mn\nOverall bit rate mode                    : Variable\nOverall bit rate                        : 1 023 Kbps\nWriting application                      : VirtualDubMod 1.5.10.2 (build 2540/release\nWriting library                          : VirtualDubMod build 2540/release\n\nVideo\nID                                      : 0\nFormat                                  : MPEG-4 Visual\nFormat profile                          : Advanced SimpleL5\nFormat settings, BVOP                    : 2\nFormat settings, QPel                    : No\nFormat settings, GMC                    : No warppoints\nFormat settings, Matrix                  : Default (H.263\nCodec ID                                : XVID\nCodec ID/Hint                            : XviD\nDuration                                : 1h 36mn\nBit rate                                : 878 Kbps\nWidth                                    : 624 pixels\nHeight                                  : 336 pixels\nDisplay aspect ratio                    : 1.857\nFrame rate                              : 23.976 fps\nColor space                              : YUV\nChroma subsampling                      : 4:2:0\nBit depth                                : 8 bits\nScan type                                : Progressive\nCompression mode                        : Lossy\nBits/(PixelFrame)                      : 0.175\nStream size                              : 604 MiB (86\nWriting library                          : XviD 61\n\nAudio\nID                                      : 1\nFormat                                  : MPEG Audio\nFormat version                          : Version 1\nFormat profile                          : Layer 3\nMode                                    : Joint stereo\nMode extension                          : MS Stereo\nCodec ID                                : 55\nCodec ID/Hint                            : MP3\nDuration                                : 1h 36mn\nBit rate mode                            : Variable\nBit rate                                : 128 Kbps\nChannel(s)                              : 2 channels\nSampling rate                            : 48.0 KHz\nCompression mode                        : Lossy\nStream size                              : 90.4 MiB (13\nAlignment                                : Aligned on interleaves\nInterleave, duration                    : 24 ms (0.58 video frame\nInterleave, preload duration            : 481 ms\nWriting library                          : LAME3.90\nEncoding settings                        : -m j -V 4 -q 2 -lowpass 17.6 --abr 128\n\n\nPoster:\n\n &lt;a href=&quot;\nhttp://i.imgur.com/SisN8.jpg&quot; rel=&quot;nofollow&quot; target=&quot;_NEW&quot;&gt;\nhttp://i.imgur.com/SisN8.jpg&lt;/a&gt;\n\n\nScreens:\n\n &lt;a href=&quot;\nhttp://i.imgur.com/DrN30.jpg&quot; rel=&quot;nofollow&quot; target=&quot;_NEW&quot;&gt;\nhttp://i.imgur.com/DrN30.jpg&lt;/a&gt;\n\n &lt;a href=&quot;\nhttp://i.imgur.com/GfT2j.jpg&quot; rel=&quot;nofollow&quot; target=&quot;_NEW&quot;&gt;\nhttp://i.imgur.com/GfT2j.jpg&lt;/a&gt;\n\n &lt;a href=&quot;\nhttp://i.imgur.com/UgEmk.jpg&quot; rel=&quot;nofollow&quot; target=&quot;_NEW&quot;&gt;\nhttp://i.imgur.com/UgEmk.jpg&lt;/a&gt;\n\n\nENJOY!","torrent":{"xt":"urn:btih:6dff7043ae359923d82373074e6e2a67d8c79dec","amp;dn":"The+Elephant+In+The+Living+Room+2010+DVDRip+XviD-SPRiNTER","amp;tr":["udp%3A%2F%2Ftracker.openbittorrent.com%3A80","udp%3A%2F%2Fopen.demonii.com%3A1337","udp%3A%2F%2Ftracker.coppersurfer.tk%3A6969","udp%3A%2F%2Fexodus.desync.com%3A6969"],"infoHash":"6dff7043ae359923d82373074e6e2a67d8c79dec","infoHashBuffer":{"type":"Buffer","data":[109,255,112,67,174,53,153,35,216,35,115,7,78,110,42,103,216,199,157,236]},"announce":[],"urlList":[]}}